<svg width="64" height="64" viewBox="0 0 64 64" fill="none" xmlns="http://www.w3.org/2000/svg">
<g id="cloud">
<g id="Vector" filter="url(#filter0_i_101_58)">
<path d="M47.9999 26.6667H44.6399C43.6422 22.8027 41.5807 19.296 38.6896 16.5451C35.7985 13.7941 32.1938 11.9093 28.285 11.1047C24.3762 10.3002 20.3201 10.6081 16.5776 11.9936C12.8351 13.3791 9.55626 15.7865 7.11363 18.9424C4.67099 22.0982 3.16253 25.8759 2.75964 29.8463C2.35675 33.8166 3.0756 37.8204 4.83449 41.4026C6.59338 44.9848 9.3218 48.0018 12.7097 50.1108C16.0976 52.2199 20.0092 53.3363 23.9999 53.3333H47.9999C51.5361 53.3333 54.9275 51.9286 57.428 49.4281C59.9285 46.9276 61.3332 43.5362 61.3332 40C61.3332 36.4638 59.9285 33.0724 57.428 30.5719C54.9275 28.0714 51.5361 26.6667 47.9999 26.6667Z" fill="url(#paint0_linear_101_58)"/>
</g>
</g>
<defs>
<filter id="filter0_i_101_58" x="2.65063" y="10.6667" width="58.6826" height="46.6667" filterUnits="userSpaceOnUse" color-interpolation-filters="sRGB">
<feFlood flood-opacity="0" result="BackgroundImageFix"/>
<feBlend mode="normal" in="SourceGraphic" in2="BackgroundImageFix" result="shape"/>
<feColorMatrix in="SourceAlpha" type="matrix" values="0 0 0 0 0 0 0 0 0 0 0 0 0 0 0 0 0 0 127 0" result="hardAlpha"/>
<feOffset dy="4"/>
<feGaussianBlur stdDeviation="2"/>
<feComposite in2="hardAlpha" operator="arithmetic" k2="-1" k3="1"/>
<feColorMatrix type="matrix" values="0 0 0 0 0 0 0 0 0 0 0 0 0 0 0 0 0 0 0.15 0"/>
<feBlend mode="normal" in2="shape" result="effect1_innerShadow_101_58"/>
</filter>
<linearGradient id="paint0_linear_101_58" x1="71" y1="53" x2="-42" y2="-27" gradientUnits="userSpaceOnUse">
<stop/>
<stop offset="1" stop-opacity="0"/>
</linearGradient>
</defs>
</svg>
